<svg width="1603" height="188" viewBox="0 0 1603 188" fill="none" xmlns="http://www.w3.org/2000/svg">
<g clip-path="url(#clip0_1496_475)">
<path d="M278.351 44.103V48.7217H275.236V44.103C260.319 43.7509 251.281 36.5693 251.296 24.4875C251.311 12.4057 260.39 5.21008 275.306 4.90041V0.352051H278.422V4.90041C293.338 5.32286 302.376 12.4199 302.361 24.6143C302.347 36.8089 293.267 43.8073 278.351 44.103ZM275.236 41.4276V7.63199C262.156 8.06866 254.44 13.9687 254.426 24.5297C254.411 35.0909 262.257 40.8924 275.236 41.4276ZM299.161 24.5297C299.161 14.1376 291.415 8.06866 278.407 7.63199V41.357C291.359 40.9488 299.148 34.9781 299.161 24.5297Z" fill="#1C343E"/>
<path d="M278.688 49.0736H274.886V44.4409C259.869 43.9763 250.932 36.5411 250.946 24.4875C250.959 12.4339 259.926 4.97081 274.886 4.56234V0H278.702V4.56234C293.717 5.08335 302.654 12.5464 302.642 24.5721C302.627 36.5975 293.646 44.0327 278.632 44.4269L278.688 49.0736ZM275.573 48.3555H277.987V43.751H278.324C293.128 43.4553 301.982 36.3018 302.009 24.5297C302.039 12.7578 293.421 5.63256 278.407 5.21011H278.07V0.718137H275.656V5.2665H275.321C260.514 5.54797 251.674 12.7436 251.648 24.4875C251.618 36.2315 260.458 43.3989 275.25 43.751H275.587L275.573 48.3555ZM278.001 41.7373V7.28018H278.365C291.794 7.70263 299.483 13.983 299.415 24.5017C299.415 34.9923 291.696 41.2727 278.268 41.7091L278.001 41.7373ZM278.759 8.01229V41.0052C291.527 40.4842 298.853 34.4853 298.867 24.5157C298.879 14.5461 291.527 8.51933 278.759 8.01229ZM275.587 41.7373H275.221C261.792 41.2302 254.103 34.9641 254.171 24.5017C254.242 14.0391 261.89 7.7448 275.321 7.29416H275.685L275.587 41.7373ZM274.942 7.94193C261.975 8.47691 254.846 14.3208 254.831 24.4311C254.819 34.5417 262.115 40.4278 274.886 41.0052L274.942 7.94193Z" fill="#1C343E"/>
<path d="M386.991 1.99951L366.335 40.836C363.53 46.018 359.823 48.2288 355.868 48.2148C354.106 48.1734 352.374 47.7708 350.773 47.032L351.797 44.3142C353.082 44.884 354.463 45.1951 355.868 45.2295C358.672 45.2295 361.228 43.8214 363.403 40.1039L364.932 37.4425L346.703 1.99951H350.267L366.728 34.3868L383.567 1.99951H386.991Z" fill="#1C343E"/>
<path d="M355.894 48.5667C354.086 48.5263 352.305 48.1141 350.661 47.3558L350.353 47.229L351.616 43.8494L351.953 43.9901C353.197 44.5428 354.536 44.8444 355.894 44.8775C358.787 44.8775 361.143 43.258 363.107 39.9348L364.512 37.4423L346.128 1.5769H350.492L350.59 1.77427L366.728 33.556L383.399 1.64752H387.609L366.645 40.9908C363.29 47.2572 358.968 48.5667 355.894 48.5667ZM351.223 46.8487C352.689 47.4877 354.267 47.8322 355.868 47.8626C359.992 47.8626 363.5 45.3703 366 40.667L386.375 2.35144H383.792L366.728 35.0908L350.057 2.28107H347.252L365.311 37.4845L363.684 40.3009C361.622 43.8494 359.08 45.6517 355.894 45.6517C354.565 45.627 353.253 45.3548 352.022 44.8493L351.223 46.8487Z" fill="#1C343E"/>
<path d="M469.294 2.1687L469.223 47.6516H465.969L466.037 5.15379H442.967L442.364 21.8543C441.636 40.1603 438.745 48.0459 431.222 48.0317C430.147 48.0498 429.075 47.9169 428.039 47.6374L428.43 44.5817C429.114 44.76 429.815 44.8497 430.521 44.8494C436.331 44.8494 438.701 38.3014 439.361 21.9247L440.035 2.21087L469.294 2.1687Z" fill="#1C343E"/>
<path d="M431.251 48.3274C430.142 48.3428 429.038 48.2053 427.968 47.9191L427.672 47.8346L428.148 44.0889L428.527 44.1875C429.194 44.3567 429.876 44.442 430.562 44.441C436.008 44.441 438.379 38.1043 438.982 21.9108L439.671 1.81665H440.006H469.616L469.546 48.0177H465.587L465.729 5.49193H443.277L442.686 21.8544C441.943 40.8925 438.73 48.3274 431.251 48.3274ZM428.444 47.3135C429.363 47.5376 430.306 47.6416 431.251 47.6235C438.266 47.6235 441.284 40.3715 442.026 21.7982L442.63 4.81596H442.967H466.389L466.318 47.3278H468.871L468.942 2.54876H440.372L439.713 21.9672C439.024 38.8648 436.541 45.2295 430.548 45.2295C429.944 45.2329 429.343 45.1667 428.752 45.0324L428.444 47.3135Z" fill="#1C343E"/>
<path d="M548.731 44.624V49.2427H545.601V44.624C530.685 44.2719 521.649 37.1045 521.662 25.0084C521.676 12.9126 530.756 5.73102 545.672 5.43533V0.886963H548.802V5.43533C563.719 5.85778 572.769 12.9548 572.742 25.1494C572.712 37.3438 563.648 44.3283 548.731 44.624ZM545.601 41.8921V8.16715C532.537 8.58959 524.821 14.4896 524.792 25.0648C524.765 35.64 532.664 41.4275 545.601 41.8921ZM569.541 24.9945C569.541 14.6024 561.796 8.54742 548.787 8.09678V41.8218C561.739 41.4275 569.57 35.499 569.57 25.0366L569.541 24.9945Z" fill="#1C343E"/>
<path d="M549.069 49.5946H545.238V44.9618C530.223 44.4972 521.283 37.0621 521.298 25.0085C521.313 12.9548 530.28 5.49176 545.321 5.08328V0.591309H549.152V5.0975C564.181 5.61851 573.121 13.0956 573.091 25.107C573.065 37.1185 564.112 44.5676 549.096 44.9758L549.069 49.5946ZM545.939 48.8906H548.367V44.2437H548.705C563.509 43.962 572.349 36.7946 572.363 25.0788C572.376 13.3631 563.802 6.22387 548.788 5.78745H548.436V1.23908H546.01V5.77323H545.714C530.925 6.06891 522.085 13.2505 522.055 24.9945C522.028 36.7382 530.812 43.9198 545.616 44.2437H545.953L545.939 48.8906ZM548.38 42.2582V7.80113H548.746C562.16 8.23755 569.795 14.5037 569.795 25.0227C569.795 35.5272 562.062 41.7936 548.648 42.23L548.38 42.2582ZM549.14 8.46287V41.4555C561.908 40.9345 569.233 34.9359 569.248 24.9663C569.26 14.9967 561.908 9.04027 549.14 8.53324V8.46287ZM545.953 42.2582H545.589C532.173 41.7654 524.54 35.4851 524.54 25.0367C524.54 14.5882 532.229 8.25152 545.714 7.8151H546.066L545.953 42.2582ZM545.308 8.46287C532.356 8.98388 525.212 14.8275 525.2 24.9521C525.185 35.0766 532.496 40.8783 545.252 41.4555L545.308 8.46287Z" fill="#1C343E"/>
<path d="M625.168 2.46436H628.423L628.352 42.3709L658.832 2.5205H661.637L661.554 48.0176H658.312V8.16728L627.958 47.9613H625.153L625.168 2.46436Z" fill="#1C343E"/>
<path d="M661.975 48.3837H657.975L658.046 9.22331L628.142 48.3134H624.746L624.816 2.1123H628.775L628.704 41.3291L658.664 2.1687H662.06L661.975 48.3837ZM658.732 47.6798H661.273L661.356 2.88684H659.013L628.003 43.4132L628.071 2.83044H625.518L625.447 47.6234H627.792L658.788 7.16746L658.732 47.6798Z" fill="#1C343E"/>
<path d="M751.6 2.71753L751.517 48.2005H748.26L748.346 5.68888H725.261L724.658 22.3894C723.93 40.6952 721.039 48.5807 713.516 48.5667C712.441 48.5829 711.368 48.4503 710.33 48.1725L710.723 45.1168C711.412 45.2946 712.119 45.3845 712.83 45.3843C718.625 45.3843 720.995 38.8365 721.67 22.4598L722.329 2.74572L751.6 2.71753Z" fill="#1C343E"/>
<path d="M713.545 48.8764C712.441 48.8909 711.341 48.7534 710.274 48.4682L709.98 48.3836L710.457 44.638L710.836 44.7366C711.498 44.9207 712.184 45.006 712.871 44.9901C718.302 44.9901 720.673 38.6534 721.291 22.4598L721.965 2.36572H722.3H751.923L751.84 48.5526H747.881L747.967 6.04076H725.515L724.924 22.4034C724.252 41.4273 721.024 48.8764 713.545 48.8764ZM710.738 47.8626C711.657 48.0857 712.6 48.1899 713.545 48.1725C720.56 48.1725 723.563 40.9206 724.308 22.3331L724.924 5.29467H725.332H748.766V47.8062H751.307L751.39 3.02747H722.806L722.16 22.4316C721.459 39.3293 718.974 45.7082 712.983 45.7082C712.375 45.7124 711.767 45.6462 711.173 45.5111L710.738 47.8626Z" fill="#1C343E"/>
<path d="M850.714 48.4682V9.46274L831.981 42.3146H830.395L811.772 9.51888L811.704 48.3272H808.518L808.588 2.83032H811.393L831.277 38.0338L851.303 2.83032H853.968V48.4682H850.714Z" fill="#1C343E"/>
<path d="M854.264 48.7639H850.362V10.744L832.12 42.6243H830.114L812.038 10.8004V48.6371H808.124L808.195 2.43604H811.491L811.591 2.61894L831.235 37.2734L851.036 2.5064H854.264V48.7639ZM851.063 48.0457H853.563V3.26671H851.444L831.223 38.7519L811.127 3.18237H808.938L808.867 47.9611H811.352L811.423 8.18113L830.59 41.9765H831.783L851.078 8.18113L851.063 48.0457Z" fill="#1C343E"/>
<path d="M941.7 45.6518V48.6511H910.912L910.998 3.16821H940.831V6.15354H914.252V24.0932H938.023V26.9236H914.24V45.5815L941.7 45.6518Z" fill="#1C343E"/>
<path d="M942.038 48.9329H941.688H910.548L910.634 2.74585H910.983H941.168V6.43535H940.816H914.59V23.6709H938.361V27.3462H938.011H914.577V45.2998H942.123L942.038 48.9329ZM911.25 48.1584H941.351V45.9336H913.805V26.5858H914.155H937.589V24.3608H913.818V5.71721H914.169H940.411V3.40784H911.279L911.25 48.1584Z" fill="#1C343E"/>
<path d="M1029.84 3.25293V48.7498H1026.58V27.1069H996.751V48.7498H993.509V3.25293H996.766V24.1919H1026.6V3.2669L1029.84 3.25293Z" fill="#1C343E"/>
<path d="M1030.15 49.1017H1026.19V27.4585H997.059V49.1017H993.115V2.90063H997.073V23.8396H1026.21V2.90063H1030.16L1030.15 49.1017ZM1026.91 48.3836H1029.45L1029.53 3.59058H1027.03V24.5156H1026.68H996.499V3.5766H993.943V48.3696H996.485V26.7264H996.834H1027.02L1026.91 48.3836Z" fill="#1C343E"/>
<path d="M1114.85 6.40702H1098.78V48.9046H1095.54L1095.61 6.3928H1079.54V3.40771H1114.93L1114.85 6.40702Z" fill="#1C343E"/>
<path d="M1099.06 49.2285H1095.12L1095.19 6.71671H1079.12V2.99927H1079.47H1115.22V6.68852H1099.15L1099.06 49.2285ZM1095.79 48.4682H1098.33L1098.42 5.97038H1114.47V3.77379H1079.78V6.05497H1095.85L1095.79 48.4682Z" fill="#1C343E"/>
<path d="M103.491 0.352051H8.41969C3.76956 0.352051 0 4.13471 0 8.80077V40.836C0 45.5023 3.76956 49.2849 8.41969 49.2849H103.491C108.14 49.2849 111.91 45.5023 111.91 40.836V8.80077C111.91 4.13471 108.14 0.352051 103.491 0.352051Z" fill="#1C343E"/>
<path d="M40.4142 137.026H8.49001C3.83987 137.026 0.0703125 140.809 0.0703125 145.475V177.51C0.0703125 182.176 3.83987 185.959 8.49001 185.959H40.4142C45.0641 185.959 48.8337 182.176 48.8337 177.51V145.475C48.8337 140.809 45.0641 137.026 40.4142 137.026Z" fill="#1C343E"/>
<path d="M171.451 0.352051H139.526C134.876 0.352051 131.107 4.13471 131.107 8.80077V40.836C131.107 45.5023 134.876 49.2849 139.526 49.2849H171.451C176.101 49.2849 179.87 45.5023 179.87 40.836V8.80077C179.87 4.13471 176.101 0.352051 171.451 0.352051Z" fill="#5C90D2"/>
<path d="M171.184 137.026H76.4497C71.7998 137.026 68.0303 140.809 68.0303 145.475V177.51C68.0303 182.176 71.7998 185.959 76.4497 185.959H171.184C175.834 185.959 179.604 182.176 179.604 177.51V145.475C179.604 140.809 175.834 137.026 171.184 137.026Z" fill="#5C90D2"/>
<path d="M107.728 117.481H170.65C175.3 117.481 179.07 113.698 179.07 109.032V76.9971C179.07 72.331 175.3 68.5483 170.65 68.5483H107.728C103.078 68.5483 99.3086 72.331 99.3086 76.9971V109.032C99.3086 113.698 103.078 117.481 107.728 117.481Z" fill="#5C90D2"/>
<path d="M8.41969 117.481H71.6927C76.3426 117.481 80.1122 113.698 80.1122 109.032V76.9971C80.1122 72.331 76.3426 68.5483 71.6927 68.5483H8.41969C3.76956 68.5483 0 72.331 0 76.9971V109.032C0 113.698 3.76956 117.481 8.41969 117.481Z" fill="#1C343E"/>
<path d="M251.296 185.48L294.77 185.494L294.797 99.8652L332.756 99.8794L332.727 185.508L376.201 185.523L376.243 68.5764L251.337 68.5342L251.296 185.48Z" fill="#1C343E"/>
<path d="M413.093 114.299C412.181 136.632 410.383 153.727 396.576 153.727H391.904C391.74 153.73 391.584 153.793 391.464 153.905C391.345 154.017 391.271 154.169 391.257 154.332L389.055 185.438L389.49 185.536C395.532 186.912 401.704 187.639 407.901 187.705C442.532 187.705 450.224 160.26 451.795 112.862L452.144 99.9497H480.435V185.565H523.936V68.6187H414.791L413.093 114.299Z" fill="#1C343E"/>
<path d="M634.121 68.6748H590.998L534.868 184.875L534.516 185.607H579.576L588.135 165.344H636.141L644.742 185.55H690.532L634.218 68.9705L634.121 68.6748ZM600.442 136.266L612.131 108.92L623.793 136.28L600.442 136.266Z" fill="#1C343E"/>
<path d="M686.334 100.02L723.844 100.034L723.817 185.649L767.274 185.663L767.318 100.048L804.826 100.062L804.84 68.7456L686.334 68.6892V100.02Z" fill="#1C343E"/>
<path d="M915.377 75.1102V66.5769H874.837V75.0256C831.727 78.4194 808.882 96.2606 808.882 126.648C808.882 157.036 831.644 175.06 874.751 178.482V185.522H915.335V178.749C957.824 176.032 981.288 157.627 981.288 126.789C981.288 95.9507 958.469 78.2081 915.377 75.1102ZM874.808 147.038C858.811 144.602 851.669 138.336 851.669 126.747C851.669 114.51 858.391 108.61 874.822 106.469L874.808 147.038ZM915.347 147.235V106.399C931.346 108.568 938.488 114.848 938.488 126.69C938.488 138.885 931.612 145.067 915.347 147.221V147.235Z" fill="#1C343E"/>
<path d="M1061.27 66.1965C1040.98 66.1965 1022.49 72.3219 1009.2 83.4323C1002.7 88.7319 997.459 95.4244 993.87 103.019C990.281 110.614 988.431 118.919 988.458 127.324C988.458 162.753 1019.05 188.465 1061.23 188.479C1081.54 188.479 1100.03 182.354 1113.32 171.244C1119.82 165.94 1125.06 159.242 1128.65 151.642C1132.23 144.042 1134.08 135.733 1134.05 127.324C1134.06 91.9232 1103.46 66.2108 1061.27 66.1965ZM1061.27 155.782C1044.64 155.782 1033.05 144.067 1033.05 127.31C1033.05 118.861 1035.86 111.595 1041.3 106.413C1046.73 101.391 1053.89 98.6755 1061.27 98.8373C1068.66 98.6816 1075.82 101.402 1081.26 106.427C1086.64 111.609 1089.49 118.833 1089.49 127.324C1089.47 144.081 1077.86 155.782 1061.26 155.782H1061.27Z" fill="#1C343E"/>
<path d="M1210.86 68.9001H1148.68V185.846H1192.88V157.346H1210.86C1246.6 157.346 1269.7 139.997 1269.71 113.13C1269.73 86.2627 1246.56 68.9144 1210.86 68.9001ZM1208.05 126.197H1192.79V100.048H1208.05C1213.75 100.048 1218.09 101.231 1220.99 103.555C1222.37 104.716 1223.47 106.185 1224.18 107.845C1224.9 109.505 1225.22 111.31 1225.12 113.116C1225.09 121.691 1219.2 126.197 1208.05 126.197Z" fill="#1C343E"/>
<path d="M1436.03 68.9849L1399.76 68.9706L1359.37 130.323L1318.08 69.1538L1317.94 68.9285H1281.67L1281.61 185.861L1321.97 185.874L1322 135.998L1349.03 175.454L1368.6 175.469L1395.66 134.252L1395.99 185.903L1436.35 185.917L1436.03 69.4777V68.9849Z" fill="#1C343E"/>
<path d="M1546.51 69.3088L1546.37 69.0271H1503.29L1447.16 185.213L1446.8 185.945H1491.86L1500.48 165.752H1548.49L1557.09 185.959H1602.88L1546.51 69.3088ZM1512.83 136.59L1524.52 109.23L1536.18 136.59H1512.83Z" fill="#1C343E"/>
</g>
<defs>
<clipPath id="clip0_1496_475">
<rect width="1603" height="188" fill="white"/>
</clipPath>
</defs>
</svg>
