<?xml version="1.0" encoding="UTF-8" standalone="no"?><!-- Generator: Gravit.io --><svg xmlns="http://www.w3.org/2000/svg" xmlns:xlink="http://www.w3.org/1999/xlink" style="isolation:isolate" viewBox="0 0 1603 188" width="1603pt" height="188pt"><defs><clipPath id="_clipPath_bwWor3tKOEELIrwqEK2IfFRTLerkas8b"><rect width="1603" height="188"/></clipPath></defs><g clip-path="url(#_clipPath_bwWor3tKOEELIrwqEK2IfFRTLerkas8b)"><clipPath id="_clipPath_p9oHHVOh3LHikPfHHBE46TKBOaGI8aIq"><rect x="0" y="0" width="1603" height="188.592" transform="matrix(1,0,0,1,0,0)" fill="rgb(255,255,255)"/></clipPath><g clip-path="url(#_clipPath_p9oHHVOh3LHikPfHHBE46TKBOaGI8aIq)"><g><path d=" M 278.379 44.132 L 278.379 48.754 L 275.25 48.754 L 275.25 44.132 C 260.331 43.779 251.294 36.606 251.322 24.5 C 251.335 12.338 260.416 5.207 275.334 4.897 L 275.334 0.345 L 278.464 0.345 L 278.464 4.897 C 293.382 5.319 302.42 12.422 302.392 24.585 C 302.378 36.676 293.312 43.822 278.379 44.117 L 278.379 44.132 Z  M 275.264 41.398 L 275.32 7.645 C 262.254 8.068 254.522 13.973 254.508 24.514 C 254.493 34.985 262.324 40.918 275.264 41.398 Z  M 299.206 24.528 C 299.22 14.128 291.459 8.053 278.45 7.645 L 278.394 41.398 C 291.403 40.961 299.192 34.999 299.206 24.528 Z " fill="rgb(224,213,213)"/><path d=" M 278.732 49.1 L 274.901 49.1 L 274.901 44.463 C 259.884 43.998 250.945 36.557 250.958 24.494 C 250.987 12.402 259.94 4.961 274.971 4.552 L 274.971 0 L 278.802 0 L 278.802 4.566 C 293.819 5.102 302.759 12.571 302.73 24.592 C 302.717 36.656 293.749 44.069 278.718 44.463 L 278.718 49.086 L 278.732 49.1 Z  M 275.603 48.395 L 278.031 48.395 L 278.031 43.787 L 278.367 43.787 C 293.159 43.491 302.015 36.318 302.029 24.606 C 302.043 12.74 293.454 5.694 278.423 5.271 L 278.087 5.271 L 278.087 0.719 L 275.659 0.719 L 275.659 5.257 L 275.322 5.257 C 260.53 5.553 251.674 12.754 251.66 24.508 C 251.646 36.233 260.46 43.435 275.266 43.773 L 275.603 43.773 L 275.603 48.395 Z  M 278.031 41.772 L 278.087 7.286 L 278.452 7.286 C 291.882 7.723 299.573 14.008 299.545 24.536 C 299.531 35.035 291.812 41.321 278.396 41.758 L 278.031 41.758 L 278.031 41.772 Z  M 278.788 8.019 L 278.732 41.053 C 291.504 40.517 298.829 34.528 298.843 24.55 C 298.858 14.558 291.56 8.54 278.788 8.033 L 278.788 8.019 Z  M 275.603 41.772 L 275.238 41.772 C 261.807 41.264 254.13 34.979 254.145 24.522 C 254.158 14.023 261.877 7.737 275.294 7.3 L 275.659 7.3 L 275.603 41.772 Z  M 274.957 8.019 C 262.003 8.54 254.86 14.403 254.846 24.522 C 254.832 34.457 262.13 40.461 274.901 41.039 L 274.957 8.019 Z " fill="rgb(224,213,213)"/><path d=" M 387.034 2.007 L 366.376 40.862 C 363.625 46.062 359.864 48.261 355.907 48.261 C 354.18 48.261 352.468 47.795 350.812 47.077 L 351.836 44.343 C 353.24 44.934 354.573 45.259 355.92 45.259 C 358.727 45.259 361.282 43.835 363.457 40.129 L 364.986 37.465 L 346.742 1.909 L 350.307 1.909 L 366.769 34.337 L 383.652 1.979 L 387.034 1.979 L 387.034 2.007 Z " fill="rgb(224,213,213)"/><path d=" M 355.936 48.619 L 355.908 48.619 C 354.28 48.619 352.512 48.21 350.673 47.407 L 350.364 47.28 L 351.641 43.898 L 351.978 44.039 C 353.41 44.631 354.701 44.926 355.922 44.926 L 355.936 44.926 C 358.827 44.926 361.185 43.306 363.15 39.98 L 364.581 37.485 L 346.168 1.59 L 350.533 1.59 L 350.631 1.788 L 366.784 33.61 L 383.457 1.661 L 387.639 1.661 L 366.7 41.051 C 363.388 47.308 359.023 48.633 355.95 48.633 L 355.936 48.619 Z  M 351.263 46.899 C 352.904 47.576 354.463 47.914 355.922 47.914 L 355.95 47.914 C 360.09 47.914 363.584 45.42 366.083 40.713 L 386.474 2.366 L 383.892 2.366 L 366.784 35.132 L 350.112 2.295 L 347.333 2.295 L 365.395 37.499 L 363.767 40.332 C 361.676 43.898 359.121 45.631 355.95 45.631 L 355.922 45.631 C 354.701 45.631 353.424 45.363 352.049 44.828 L 351.263 46.899 Z " fill="rgb(224,213,213)"/><path d=" M 469.361 2.151 L 469.291 47.685 L 466.035 47.685 L 466.105 5.138 L 443.019 5.096 L 442.415 21.81 C 441.685 40.145 438.794 48.023 431.272 47.995 C 430.248 47.995 429.294 47.925 428.087 47.6 L 428.479 44.542 C 429.307 44.74 429.883 44.81 430.584 44.81 C 436.38 44.81 438.752 38.257 439.426 21.867 L 440.1 2.094 L 469.361 2.151 Z " fill="rgb(224,213,213)"/><path d=" M 431.3 48.369 L 431.286 48.369 C 430.359 48.369 429.321 48.313 428.001 47.96 L 427.707 47.876 L 428.184 44.127 L 428.563 44.212 C 429.349 44.395 429.896 44.465 430.584 44.465 C 436.029 44.465 438.401 38.124 439.061 21.86 L 439.748 1.75 L 440.085 1.75 L 469.697 1.806 L 469.613 48.045 L 465.655 48.045 L 465.725 5.498 L 443.327 5.456 L 442.737 21.832 C 441.98 40.914 438.752 48.369 431.272 48.369 L 431.3 48.369 Z  M 428.479 47.354 C 429.517 47.608 430.359 47.665 431.286 47.665 L 431.3 47.665 C 438.303 47.665 441.32 40.407 442.064 21.818 L 442.681 4.765 L 443.018 4.765 L 466.455 4.808 L 466.385 47.354 L 468.939 47.354 L 469.01 2.539 L 440.436 2.482 L 439.776 21.917 C 439.089 38.885 436.605 45.198 430.598 45.198 L 430.584 45.198 C 429.952 45.198 429.433 45.142 428.773 45.015 L 428.479 47.383 L 428.479 47.354 Z " fill="rgb(224,213,213)"/><path d=" M 548.79 44.662 L 548.79 49.284 L 545.66 49.284 L 545.66 44.662 C 530.742 44.309 521.703 37.136 521.732 25.03 C 521.746 12.868 530.826 5.723 545.744 5.427 L 545.744 0.875 L 548.874 0.875 L 548.874 5.427 C 563.792 5.85 572.83 12.952 572.802 25.115 C 572.788 37.207 563.722 44.352 548.79 44.648 L 548.79 44.662 Z  M 545.674 41.928 L 545.73 8.175 C 532.665 8.598 524.932 14.503 524.917 25.044 C 524.903 35.515 532.735 41.449 545.674 41.928 Z  M 569.617 25.058 C 569.63 14.658 561.87 8.584 548.86 8.175 L 548.804 41.928 C 561.814 41.491 569.603 35.529 569.617 25.058 Z " fill="rgb(224,213,213)"/><path d=" M 549.129 49.644 L 545.298 49.644 L 545.298 45.008 C 530.281 44.543 521.342 37.102 521.355 25.038 C 521.37 12.946 530.337 5.505 545.368 5.096 L 545.368 0.53 L 549.2 0.53 L 549.2 5.096 C 564.216 5.618 573.156 13.087 573.128 25.122 C 573.114 37.186 564.146 44.599 549.115 44.994 L 549.115 49.616 L 549.129 49.644 Z  M 546 48.94 L 548.428 48.94 L 548.428 44.331 L 548.764 44.331 C 563.556 44.035 572.412 36.862 572.426 25.151 C 572.44 13.284 563.851 6.238 548.82 5.815 L 548.484 5.815 L 548.484 1.263 L 546.056 1.263 L 546.056 5.801 L 545.719 5.801 C 530.927 6.097 522.071 13.298 522.058 25.052 C 522.043 36.763 530.857 43.979 545.649 44.331 L 545.986 44.331 L 545.986 48.954 L 546 48.94 Z  M 548.428 42.316 L 548.484 7.83 L 548.849 7.83 C 562.279 8.267 569.97 14.553 569.942 25.08 C 569.928 35.579 562.209 41.865 548.793 42.302 L 548.428 42.302 L 548.428 42.316 Z  M 549.185 8.563 L 549.129 41.597 C 561.9 41.062 569.226 35.072 569.24 25.094 C 569.255 15.102 561.957 9.085 549.185 8.577 L 549.185 8.563 Z  M 546 42.316 L 545.635 42.316 C 532.204 41.809 524.528 35.523 524.542 25.066 C 524.555 14.567 532.274 8.281 545.691 7.844 L 546.056 7.844 L 546 42.316 Z  M 545.354 8.563 C 532.4 9.085 525.257 14.947 525.243 25.066 C 525.229 35.002 532.527 41.005 545.298 41.583 L 545.354 8.563 Z " fill="rgb(224,213,213)"/><path d=" M 625.251 2.479 L 628.507 2.479 L 628.437 42.419 L 658.919 2.536 L 661.782 2.536 L 661.712 48.07 L 658.456 48.07 L 658.526 8.187 L 628.044 48 L 625.181 48 L 625.251 2.465 L 625.251 2.479 Z " fill="rgb(224,213,213)"/><path d=" M 662.063 48.43 L 658.106 48.43 L 658.176 9.238 L 628.227 48.36 L 624.831 48.36 L 624.915 2.121 L 628.872 2.121 L 628.803 41.384 L 658.751 2.191 L 662.148 2.191 L 662.063 48.43 Z  M 658.807 47.726 L 661.362 47.726 L 661.432 2.91 L 659.089 2.91 L 628.087 43.47 L 628.157 2.839 L 625.603 2.839 L 625.533 47.655 L 627.876 47.655 L 658.878 7.166 L 658.807 47.726 Z " fill="rgb(224,213,213)"/><path d=" M 751.688 2.72 L 751.614 48.254 L 748.364 48.254 L 748.431 5.707 L 725.347 5.665 L 724.738 22.379 C 724.009 40.714 721.123 48.592 713.595 48.578 C 712.574 48.578 711.621 48.508 710.412 48.184 L 710.804 45.125 C 711.635 45.323 712.209 45.393 712.912 45.393 C 718.704 45.393 721.076 38.84 721.751 22.45 L 722.427 2.677 L 751.688 2.734 L 751.688 2.72 Z " fill="rgb(224,213,213)"/><path d=" M 713.608 48.926 C 712.682 48.926 711.649 48.869 710.324 48.517 L 710.033 48.433 L 710.506 44.684 L 710.892 44.768 C 711.676 44.952 712.236 45.05 712.926 45.022 C 718.352 45.022 720.738 38.68 721.4 22.417 L 722.089 2.306 L 722.427 2.306 L 752.04 2.363 L 751.952 48.602 L 747.992 48.602 L 748.066 6.055 L 725.664 6.013 L 725.076 22.389 C 724.319 41.471 721.089 48.926 713.608 48.926 Z  M 710.804 47.911 C 711.845 48.165 712.682 48.221 713.608 48.221 L 713.622 48.221 C 720.63 48.221 723.644 40.963 724.387 22.361 L 725.009 5.308 L 725.347 5.308 L 748.783 5.35 L 748.708 47.897 L 751.263 47.897 L 751.337 3.081 L 722.758 3.025 L 722.103 22.459 C 721.414 39.427 718.933 45.741 712.939 45.741 L 712.926 45.741 C 712.291 45.741 711.77 45.684 711.115 45.558 L 710.817 47.925 L 710.804 47.911 Z " fill="rgb(224,213,213)"/><path d=" M 850.818 48.429 L 850.818 9.462 L 832.086 42.341 L 830.484 42.341 L 811.86 9.518 L 811.792 48.344 L 808.602 48.344 L 808.677 2.81 L 811.414 2.81 L 831.309 38.042 L 851.325 2.894 L 854.008 2.894 L 854.008 48.429 L 850.818 48.429 Z " fill="rgb(224,213,213)"/><path d=" M 854.359 48.789 L 850.467 48.789 L 850.467 10.794 L 832.282 42.701 L 830.275 42.701 L 812.198 10.851 L 812.13 48.704 L 808.244 48.704 L 808.325 2.465 L 811.623 2.465 L 811.725 2.648 L 831.315 37.331 L 851.129 2.536 L 854.359 2.536 L 854.359 48.775 L 854.359 48.789 Z  M 851.17 48.084 L 853.657 48.084 L 853.657 3.269 L 851.535 3.269 L 831.315 38.769 L 811.218 3.184 L 809.028 3.184 L 808.954 48 L 811.441 48 L 811.508 8.201 L 830.694 41.996 L 831.89 41.996 L 851.183 8.145 L 851.183 48.084 L 851.17 48.084 Z " fill="rgb(224,213,213)"/><path d=" M 941.805 45.625 L 941.805 48.613 L 911.003 48.556 L 911.071 3.022 L 940.906 3.078 L 940.906 6.066 L 914.314 6.01 L 914.287 23.964 L 938.075 24.006 L 938.075 26.938 L 914.287 26.895 L 914.254 45.569 L 941.805 45.625 Z " fill="rgb(224,213,213)"/><path d=" M 942.156 48.973 L 941.805 48.973 L 910.665 48.916 L 910.746 2.677 L 911.098 2.677 L 941.285 2.734 L 941.285 6.426 L 940.933 6.426 L 914.693 6.37 L 914.666 23.619 L 938.453 23.662 L 938.453 27.298 L 938.102 27.298 L 914.666 27.256 L 914.639 45.224 L 942.184 45.28 L 942.184 48.973 L 942.156 48.973 Z  M 911.368 48.212 L 941.454 48.268 L 941.454 45.985 L 913.922 45.929 L 913.949 26.551 L 914.301 26.551 L 937.737 26.593 L 937.737 24.366 L 913.963 24.324 L 913.99 5.665 L 914.341 5.665 L 940.582 5.721 L 940.582 3.438 L 911.449 3.382 L 911.382 48.212 L 911.368 48.212 Z " fill="rgb(224,213,213)"/><path d=" M 1029.994 3.264 L 1029.927 48.798 L 1026.669 48.798 L 1026.71 27.137 L 996.874 27.081 L 996.834 48.742 L 993.576 48.742 L 993.644 3.207 L 996.901 3.207 L 996.874 24.164 L 1026.71 24.22 L 1026.75 3.278 L 1030.008 3.278 L 1029.994 3.264 Z " fill="rgb(224,213,213)"/><path d=" M 1030.278 49.146 L 1026.318 49.146 L 1026.358 27.471 L 997.226 27.415 L 997.185 49.076 L 993.225 49.076 L 993.313 2.836 L 997.266 2.836 L 997.239 23.793 L 1026.372 23.849 L 1026.419 2.907 L 1030.373 2.907 L 1030.291 49.16 L 1030.278 49.146 Z  M 1027.021 48.441 L 1029.575 48.441 L 1029.643 3.626 L 1027.088 3.626 L 1027.048 24.568 L 1026.696 24.568 L 996.509 24.511 L 996.536 3.569 L 993.982 3.569 L 993.914 48.385 L 996.469 48.385 L 996.509 26.724 L 996.861 26.724 L 1027.048 26.78 L 1027.007 48.441 L 1027.021 48.441 Z " fill="rgb(224,213,213)"/><path d=" M 1114.987 6.411 L 1098.917 6.382 L 1098.849 48.929 L 1095.592 48.929 L 1095.66 6.382 L 1079.589 6.354 L 1079.589 3.367 L 1114.987 3.437 L 1114.987 6.425 L 1114.987 6.411 Z " fill="rgb(224,213,213)"/><path d=" M 1099.201 49.263 L 1095.241 49.263 L 1095.308 6.716 L 1079.245 6.688 L 1079.245 2.995 L 1079.596 2.995 L 1115.325 3.066 L 1115.325 6.758 L 1099.255 6.73 L 1099.187 49.277 L 1099.201 49.263 Z  M 1095.943 48.558 L 1098.498 48.558 L 1098.565 6.025 L 1114.635 6.054 L 1114.635 3.771 L 1079.961 3.7 L 1079.961 5.983 L 1096.024 6.011 L 1095.957 48.544 L 1095.943 48.558 Z " fill="rgb(224,213,213)"/><path d=" M 103.502 0.345 L 8.421 0.345 C 3.77 0.345 0 4.13 0 8.8 L 0 40.862 C 0 45.532 3.77 49.318 8.421 49.318 L 103.502 49.318 C 108.153 49.318 111.923 45.532 111.923 40.862 L 111.923 8.8 C 111.923 4.13 108.153 0.345 103.502 0.345 Z " fill="rgb(224,213,213)"/><path d=" M 40.418 137.127 L 8.49 137.127 C 3.839 137.127 0.069 140.913 0.069 145.582 L 0.069 177.644 C 0.069 182.314 3.839 186.1 8.49 186.1 L 40.418 186.1 C 45.068 186.1 48.838 182.314 48.838 177.644 L 48.838 145.582 C 48.838 140.913 45.068 137.127 40.418 137.127 Z " fill="rgb(224,213,213)"/><path d=" M 171.469 0.345 L 139.541 0.345 C 134.89 0.345 131.12 4.13 131.12 8.8 L 131.12 40.862 C 131.12 45.532 134.89 49.318 139.541 49.318 L 171.469 49.318 C 176.119 49.318 179.889 45.532 179.889 40.862 L 179.889 8.8 C 179.889 4.13 176.119 0.345 171.469 0.345 Z " fill="rgb(53,144,213)"/><path d=" M 171.205 137.127 L 76.46 137.127 C 71.81 137.127 68.04 140.913 68.04 145.582 L 68.04 177.644 C 68.04 182.314 71.81 186.1 76.46 186.1 L 171.205 186.1 C 175.856 186.1 179.626 182.314 179.626 177.644 L 179.626 145.582 C 179.626 140.913 175.856 137.127 171.205 137.127 Z " fill="rgb(53,144,213)"/><path d=" M 107.754 117.564 L 170.684 117.564 C 175.334 117.564 179.104 113.778 179.104 109.108 L 179.104 77.046 C 179.104 72.377 175.334 68.591 170.684 68.591 L 107.754 68.591 C 103.104 68.591 99.334 72.377 99.334 77.046 L 99.334 109.108 C 99.334 113.778 103.104 117.564 107.754 117.564 Z " fill="rgb(53,144,213)"/><path d=" M 8.419 117.564 L 71.699 117.564 C 76.35 117.564 80.12 113.778 80.12 109.108 L 80.12 77.046 C 80.12 72.377 76.35 68.591 71.699 68.591 L 8.419 68.591 C 3.769 68.591 -0.001 72.377 -0.001 77.046 L -0.001 109.108 C -0.001 113.778 3.769 117.564 8.419 117.564 Z " fill="rgb(224,213,213)"/><path d=" M 251.325 185.619 L 294.789 185.633 L 294.831 99.934 L 332.807 99.948 L 332.765 185.648 L 376.243 185.661 L 376.285 68.619 L 251.367 68.576 L 251.325 185.619 Z " fill="rgb(224,213,213)"/><path d=" M 413.14 114.376 C 412.228 136.727 410.432 153.822 396.622 153.822 L 391.949 153.822 C 391.611 153.822 391.331 154.089 391.303 154.428 L 389.114 185.574 L 389.535 185.672 C 395.976 187.096 402.334 187.842 407.948 187.842 L 407.975 187.842 C 442.612 187.842 450.289 160.375 451.86 112.938 L 452.211 100.001 L 480.504 100.001 L 480.476 185.7 L 523.955 185.7 L 523.996 68.672 L 414.839 68.63 L 413.154 114.362 L 413.14 114.376 Z " fill="rgb(224,213,213)"/><path d=" M 634.164 68.736 L 591.065 68.736 L 534.872 185.003 L 534.522 185.736 L 579.585 185.736 L 588.188 165.54 L 636.199 165.54 L 644.788 185.778 L 690.585 185.778 L 634.262 69.018 L 634.122 68.736 L 634.164 68.736 Z  M 600.553 136.354 L 612.243 108.986 L 623.905 136.368 L 600.553 136.368 L 600.553 136.354 Z " fill="rgb(224,213,213)"/><path d=" M 686.415 100.092 L 723.927 100.107 L 723.9 185.792 L 767.36 185.806 L 767.407 100.121 L 804.919 100.135 L 804.933 68.792 L 686.415 68.736 L 686.415 100.092 Z " fill="rgb(224,213,213)"/><path d=" M 915.477 75.182 L 915.477 66.642 L 874.937 66.642 L 874.937 75.168 C 831.822 78.564 809.028 96.42 809.028 126.833 C 809.028 157.358 831.795 175.284 874.91 178.709 L 874.91 185.686 L 915.45 185.686 L 915.45 178.906 C 957.949 176.201 981.358 157.739 981.358 126.903 C 981.358 96.167 958.591 78.283 915.49 75.196 L 915.477 75.182 Z  M 874.91 147.155 C 858.907 144.717 851.764 138.445 851.764 126.847 C 851.764 114.6 858.488 108.695 874.923 106.553 L 874.923 147.155 L 874.91 147.155 Z  M 915.45 147.352 L 915.45 106.412 C 931.466 108.583 938.609 114.868 938.609 126.72 C 938.609 139.009 931.675 145.21 915.45 147.352 Z " fill="rgb(224,213,213)"/><path d=" M 1061.391 66.244 L 1061.35 66.244 C 1041.057 66.244 1022.547 72.375 1009.268 83.494 C 995.921 94.655 988.582 110.257 988.569 127.379 C 988.569 162.823 1019.161 188.557 1061.35 188.585 L 1061.391 188.585 C 1081.698 188.585 1100.201 182.455 1113.487 171.336 C 1126.833 160.16 1134.172 144.573 1134.186 127.45 C 1134.186 92.006 1103.593 66.272 1061.404 66.258 L 1061.391 66.244 Z  M 1061.377 155.918 C 1044.76 155.918 1033.157 144.193 1033.157 127.408 C 1033.157 118.91 1036.009 111.68 1041.408 106.494 C 1046.49 101.603 1053.592 98.912 1061.377 98.912 L 1061.391 98.912 C 1069.196 98.912 1076.298 101.617 1081.38 106.508 C 1086.766 111.694 1089.618 118.924 1089.618 127.421 C 1089.618 144.193 1078.008 155.903 1061.391 155.903 L 1061.377 155.918 Z " fill="rgb(224,213,213)"/><path d=" M 1210.927 68.95 L 1148.742 68.921 L 1148.701 185.964 L 1192.911 185.964 L 1192.911 157.468 L 1210.886 157.468 C 1210.886 157.468 1210.913 157.468 1210.927 157.468 C 1246.676 157.468 1269.787 140.105 1269.787 113.23 C 1269.787 86.34 1246.689 68.963 1210.913 68.95 L 1210.927 68.95 Z  M 1208.177 126.294 L 1192.938 126.294 L 1192.938 100.123 L 1208.163 100.123 C 1213.846 100.123 1218.198 101.307 1221.091 103.646 C 1223.828 105.859 1225.213 109.072 1225.213 113.215 C 1225.213 121.77 1219.32 126.294 1208.163 126.294 L 1208.177 126.294 Z " fill="rgb(224,213,213)"/><path d=" M 1436.191 69.03 L 1399.915 69.017 L 1359.524 130.42 L 1318.234 69.2 L 1318.092 68.988 L 1281.803 68.974 L 1281.755 186.002 L 1322.12 186.017 L 1322.147 136.099 L 1349.178 175.588 L 1368.755 175.602 L 1395.813 134.352 L 1396.151 186.045 L 1436.515 186.059 L 1436.191 69.538 L 1436.191 69.03 Z " fill="rgb(224,213,213)"/><path d=" M 1546.694 69.362 L 1546.552 69.081 L 1503.458 69.081 L 1447.26 185.348 L 1446.909 186.08 L 1491.976 186.08 L 1500.579 165.885 L 1548.586 165.885 L 1557.175 186.123 L 1602.973 186.123 L 1546.654 69.362 L 1546.694 69.362 Z  M 1512.939 136.684 L 1524.63 109.316 L 1536.294 136.699 L 1512.939 136.699 L 1512.939 136.684 Z " fill="rgb(224,213,213)"/></g></g></g></svg>