<?xml version="1.0" encoding="UTF-8"?>
<svg version="1.1" xmlns="http://www.w3.org/2000/svg" width="33" height="34">
<path d="M0 0 C10.89 0 21.78 0 33 0 C33 11.22 33 22.44 33 34 C22.11 34 11.22 34 0 34 C0 22.78 0 11.56 0 0 Z " fill="#000000" transform="translate(0,0)"/>
<path d="M0 0 C3.31255326 -0.02683436 6.62489183 -0.0467578 9.9375 -0.0625 C10.88302734 -0.07087891 11.82855469 -0.07925781 12.80273438 -0.08789062 C14.15141602 -0.09272461 14.15141602 -0.09272461 15.52734375 -0.09765625 C16.77632446 -0.10551147 16.77632446 -0.10551147 18.05053711 -0.11352539 C20 0 20 0 21 1 C21 3.97 21 6.94 21 10 C14.07 10 7.14 10 0 10 C0 6.7 0 3.4 0 0 Z " fill="#3591D5" transform="translate(12,24)"/>
<path d="M0 0 C6.93 0 13.86 0 21 0 C21 2.97 21 5.94 21 9 C14.07 9 7.14 9 0 9 C0 6.03 0 3.06 0 0 Z " fill="#4B4B4B" transform="translate(0,0)"/>
<path d="M0 0 C1.27875 0.00257812 2.5575 0.00515625 3.875 0.0078125 C5.15375 0.00523438 6.4325 0.00265625 7.75 0 C10.875 0.1328125 10.875 0.1328125 11.875 1.1328125 C12.0078125 2.9453125 12.0078125 2.9453125 12 5.1328125 C12.00386719 6.215625 12.00386719 6.215625 12.0078125 7.3203125 C11.875 9.1328125 11.875 9.1328125 10.875 10.1328125 C8.54339945 10.23190552 6.20870058 10.26251754 3.875 10.2578125 C2.59625 10.26039062 1.3175 10.26296875 0 10.265625 C-3.125 10.1328125 -3.125 10.1328125 -4.125 9.1328125 C-4.2578125 7.3203125 -4.2578125 7.3203125 -4.25 5.1328125 C-4.25257812 4.4109375 -4.25515625 3.6890625 -4.2578125 2.9453125 C-4.02424331 -0.24222 -3.25787695 0.13845977 0 0 Z " fill="#3591D5" transform="translate(21.125,11.8671875)"/>
<path d="M0 0 C4.95 0 9.9 0 15 0 C15.09765625 6.93359375 15.09765625 6.93359375 15 9 C14 10 14 10 10.83984375 10.09765625 C8.90818359 10.08025391 8.90818359 10.08025391 6.9375 10.0625 C5.64714844 10.05347656 4.35679687 10.04445313 3.02734375 10.03515625 C2.02832031 10.02355469 1.02929688 10.01195312 0 10 C0 6.7 0 3.4 0 0 Z " fill="#4B4B4B" transform="translate(0,12)"/>
<path d="M0 0 C2.97 0 5.94 0 9 0 C9 3.3 9 6.6 9 10 C6.03 10 3.06 10 0 10 C0 6.7 0 3.4 0 0 Z " fill="#4B4B4B" transform="translate(0,24)"/>
<path d="M0 0 C3.3 0 6.6 0 10 0 C10 2.97 10 5.94 10 9 C6.7 9 3.4 9 0 9 C0 6.03 0 3.06 0 0 Z " fill="#3591D5" transform="translate(23,0)"/>
</svg>
